<svg width="758" height="186" viewBox="0 0 758 186" fill="none" xmlns="http://www.w3.org/2000/svg">
<rect width="714" height="186" rx="93" fill="#131619" style="fill:#131619;fill:color(display-p3 0.0745 0.0863 0.0980);fill-opacity:1;"/>
<g filter="url(#filter0_d_5_11)">
<path d="M46.384 56.208C46.816 56.784 46.888 57.36 46.816 59.16C46.744 60.168 46.6 61.68 46.384 63.696C46.024 67.44 45.448 72.408 44.8 78.168C43.792 87.24 42.568 97.608 41.848 106.176C40.84 117.984 41.056 121.224 41.344 122.16C41.704 122.448 41.92 122.88 41.92 123.384C41.92 124.176 41.272 124.824 40.408 124.824C39.904 124.824 39.472 124.608 39.112 124.176C38.248 123.24 37.6 121.224 38.824 106.68C39.616 97.968 40.768 87.24 41.848 77.808C42.424 72.984 43 68.016 43.36 64.272C41.488 68.088 40.408 69.384 39.04 69.384C38.248 69.384 37.6 68.736 37.6 67.944C37.6 67.224 38.032 66.72 38.608 66.504C39.544 65.712 41.416 61.536 42.28 59.664C42.712 58.8 43.072 58.008 43.36 57.432C43.792 56.568 44.224 55.704 45.232 55.704C45.664 55.704 46.096 55.92 46.384 56.208ZM72.3411 55.704C81.0531 55.704 88.3971 71.544 88.3971 90.264C88.3971 99.336 86.6691 107.832 83.6451 114.312C80.4051 121.08 76.0131 124.824 71.1891 124.824C66.3651 124.824 61.9731 121.08 58.7331 114.312C55.7091 107.832 54.0531 99.336 54.0531 90.264C54.0531 80.832 55.8531 72.192 58.9491 65.856C58.8771 65.784 58.8051 65.784 58.7331 65.712C58.0131 65.28 57.7971 64.416 58.2291 63.696C59.4531 61.68 60.8211 60.456 61.7571 59.808C62.7651 59.16 64.2051 58.44 65.2131 59.016C67.3011 56.856 69.7491 55.704 72.3411 55.704ZM71.1891 121.872C78.8931 121.872 85.4451 107.4 85.4451 90.264C85.4451 81.768 83.8611 73.704 81.0531 67.512C78.5331 61.968 75.2931 58.656 72.3411 58.656C69.9651 58.656 67.6611 60.168 65.9331 62.976C62.4051 68.52 61.0371 78.96 65.3571 88.176C65.6451 88.968 65.3571 89.832 64.6371 90.12C63.8451 90.48 62.9811 90.192 62.6211 89.472C59.6691 83.064 59.1651 76.368 60.0291 70.824C58.0851 76.296 56.9331 83.136 56.9331 90.264C56.9331 107.4 63.4851 121.872 71.1891 121.872ZM111.294 55.704C120.006 55.704 127.35 71.544 127.35 90.264C127.35 99.336 125.622 107.832 122.598 114.312C119.358 121.08 114.966 124.824 110.142 124.824C105.318 124.824 100.926 121.08 97.6863 114.312C94.6623 107.832 93.0063 99.336 93.0063 90.264C93.0063 80.832 94.8063 72.192 97.9023 65.856C97.8303 65.784 97.7583 65.784 97.6863 65.712C96.9663 65.28 96.7503 64.416 97.1823 63.696C98.4062 61.68 99.7743 60.456 100.71 59.808C101.718 59.16 103.158 58.44 104.166 59.016C106.254 56.856 108.702 55.704 111.294 55.704ZM110.142 121.872C117.846 121.872 124.398 107.4 124.398 90.264C124.398 81.768 122.814 73.704 120.006 67.512C117.486 61.968 114.246 58.656 111.294 58.656C108.918 58.656 106.614 60.168 104.886 62.976C101.358 68.52 99.9902 78.96 104.31 88.176C104.598 88.968 104.31 89.832 103.59 90.12C102.798 90.48 101.934 90.192 101.574 89.472C98.6223 83.064 98.1183 76.368 98.9823 70.824C97.0383 76.296 95.8863 83.136 95.8863 90.264C95.8863 107.4 102.438 121.872 110.142 121.872ZM185.177 94.656C185.825 95.16 185.969 96.096 185.465 96.744C180.929 103.008 174.449 109.56 168.185 114.168C163.433 117.696 156.809 121.656 151.049 121.656C150.401 121.656 149.753 121.584 149.105 121.512C143.777 120.576 139.529 114.168 136.217 107.112C133.841 111.216 131.897 115.68 131.249 120.216C131.177 121.008 130.529 121.512 129.809 121.512C129.737 121.512 129.665 121.512 129.593 121.512C128.801 121.368 128.225 120.648 128.369 119.856C129.161 114.168 131.753 108.696 134.777 103.8C133.409 100.632 132.257 97.464 131.321 94.656C131.249 94.728 131.249 94.728 131.177 94.8C130.385 95.088 129.521 94.656 129.233 93.936C128.945 93.144 128.513 91.632 128.297 90.336C127.793 87.672 128.081 86.808 128.441 86.304C128.801 85.8 129.377 85.512 129.953 85.512C131.177 85.512 131.609 86.664 132.041 87.744C132.401 88.68 132.833 89.904 133.337 91.416C134.201 94.008 135.353 97.32 136.721 100.776C139.385 97.032 142.121 93.648 144.281 91.056C145.937 89.04 147.449 87.312 148.097 86.16C148.529 85.512 149.465 85.296 150.113 85.728C150.833 86.088 151.049 87.024 150.617 87.744C149.825 89.04 148.385 90.768 146.585 92.928C143.993 96.024 140.897 99.768 138.089 104.016C138.665 105.456 139.313 106.824 139.961 108.12C143.273 114.528 146.513 118.056 149.609 118.56C158.249 120 174.161 107.328 183.089 95.016C183.593 94.368 184.529 94.224 185.177 94.656ZM230.946 94.728C231.522 95.232 231.594 96.168 231.09 96.816C224.898 104.232 214.818 111.792 204.306 116.976C199.482 119.352 194.946 121.008 191.13 121.872C189.402 122.232 187.818 122.448 186.45 122.448C184.434 122.448 182.922 122.016 181.77 121.224C177.234 118.056 178.17 108.912 180.546 101.496C182.922 94.152 187.674 85.512 193.29 85.512C195.378 85.512 196.962 86.52 197.826 88.392C199.05 90.912 198.618 94.728 196.89 96.816C196.386 97.464 195.45 97.536 194.874 97.032C194.226 96.456 194.082 95.592 194.658 94.944C195.522 93.864 195.954 91.272 195.162 89.616C194.802 88.824 194.226 88.464 193.29 88.464C190.194 88.464 185.874 94.44 183.354 102.432C180.906 110.136 180.978 117.048 183.498 118.848C185.514 120.288 192.498 119.496 203.01 114.312C213.234 109.272 222.882 102.072 228.858 94.944C229.362 94.296 230.298 94.224 230.946 94.728ZM287.593 95.16C288.025 95.88 287.737 96.744 287.089 97.176C281.761 100.128 276.433 101.208 271.537 101.208C266.425 101.208 261.745 99.984 258.001 98.616C255.841 97.824 253.897 96.888 252.097 95.88C252.889 98.112 253.393 100.704 253.393 103.512C253.393 107.76 252.169 112.08 250.081 115.392C247.561 119.352 243.961 121.512 239.785 121.512C236.113 121.512 232.801 119.424 230.425 115.608C228.337 112.296 227.185 107.904 227.185 103.512C227.185 98.472 229.201 94.44 231.001 91.92C232.873 89.112 235.465 86.736 237.697 85.656C238.273 85.296 239.065 85.512 239.497 86.016C240.937 87.888 238.993 90.696 235.033 94.944C234.529 95.52 233.593 95.592 232.945 95.016C232.873 94.944 232.801 94.8 232.729 94.728C231.217 97.176 230.065 100.2 230.065 103.512C230.065 107.328 231.145 111.216 232.945 114.024C234.241 116.112 236.473 118.56 239.785 118.56C247.129 118.56 250.441 109.776 250.441 103.512C250.441 99.12 249.073 95.592 247.417 93C244.753 91.128 242.953 89.4 242.305 88.464C241.297 87.168 241.801 86.304 242.161 85.944L242.233 85.872L242.305 85.8H242.377C242.377 85.728 242.377 85.728 242.449 85.728C242.449 85.728 242.449 85.728 242.449 85.656C242.521 85.656 242.521 85.656 242.521 85.656C242.593 85.656 242.593 85.656 242.593 85.584H242.665H242.737C242.737 85.584 242.737 85.584 242.809 85.512H242.881H242.953C242.953 85.512 242.953 85.512 243.025 85.512H243.097H243.169H243.241H243.313H243.385H243.457C243.457 85.512 243.457 85.512 243.529 85.512C243.529 85.512 243.529 85.512 243.601 85.512C243.601 85.512 243.601 85.512 243.673 85.512C243.673 85.512 243.673 85.584 243.745 85.584C243.817 85.584 243.817 85.584 243.889 85.584C243.889 85.584 243.889 85.584 243.889 85.656C245.545 86.448 247.705 88.248 249.577 90.912C249.649 90.984 249.721 90.984 249.793 91.056C252.385 92.784 256.561 95.232 261.817 96.816C270.457 99.336 278.449 98.616 285.649 94.584C286.297 94.152 287.233 94.44 287.593 95.16ZM346 94.584C346.72 94.944 346.936 95.88 346.576 96.6C342.184 104.52 335.776 112.8 329.584 118.632C325.048 122.952 318.856 127.488 313.384 127.488C312.304 127.488 311.224 127.344 310.216 126.912C303.592 124.32 301.288 113.232 300.568 104.448C300.424 103.008 300.352 101.496 300.28 99.984C298.984 103.224 297.256 106.968 295.456 110.352C293.728 113.52 292.072 116.04 290.56 117.912C288.616 120.288 286.744 121.512 285.088 121.512C284.152 121.512 282.496 121.152 281.488 118.92C280.912 117.696 280.696 116.04 280.696 113.952C280.696 108.984 282.208 102.072 284.584 96.312C286.672 91.344 290.056 85.512 294.448 85.512C296.824 85.512 298.768 87.168 300.28 89.4C300.496 83.136 301.216 76.728 302.296 70.824C303.952 62.4 306.904 52.392 311.944 52.392C313.384 52.392 314.536 53.04 315.256 54.192C316.552 56.136 316.768 59.52 315.976 64.92C315.4 69.024 314.104 74.208 312.304 80.4C309.064 91.488 304.96 102.144 303.592 105.456C304.672 115.896 307.48 122.664 311.296 124.176C314.968 125.616 320.728 122.88 327.496 116.544C333.472 110.928 339.808 102.72 343.984 95.16C344.416 94.44 345.28 94.152 346 94.584ZM292.864 108.984C295.672 103.656 298.192 97.536 299.272 94.008C298.984 93.288 298.696 92.64 298.336 91.92C297.112 89.688 295.672 88.464 294.448 88.464C292.36 88.464 289.624 91.848 287.32 97.464C285.088 102.864 283.576 109.344 283.576 113.952C283.576 116.04 283.936 117.12 284.152 117.696C284.512 118.56 284.872 118.56 285.088 118.56C286.24 118.56 289.048 116.04 292.864 108.984ZM305.248 71.4C303.664 79.824 302.872 89.688 303.16 98.4C304.96 93.576 307.408 86.664 309.496 79.536C314.824 61.536 313.6 56.928 312.808 55.776C312.592 55.488 312.376 55.344 311.944 55.344C310.504 55.344 307.48 59.592 305.248 71.4ZM379.866 94.656C380.514 95.16 380.658 96.096 380.226 96.744C380.01 97.032 374.97 103.944 367.986 110.496C360.21 117.768 353.37 121.512 347.754 121.512C345.666 121.512 343.938 120.72 342.857 119.208C339.401 114.744 341.417 105.024 344.082 95.016C343.938 95.016 343.793 95.016 343.721 94.944C342.929 94.8 342.353 94.008 342.569 93.216C342.641 92.784 343.145 91.056 343.793 89.4C344.514 87.6 345.666 85.512 347.394 85.512C347.898 85.512 348.33 85.728 348.618 86.088C349.338 86.952 349.122 87.888 347.682 93.144C345.81 99.696 342.065 113.304 345.162 117.408C345.738 118.2 346.602 118.56 347.754 118.56C358.338 118.56 373.026 101.568 377.85 95.016C378.282 94.368 379.218 94.224 379.866 94.656ZM348.546 83.064C346.962 83.064 345.738 81.84 345.738 80.328C345.738 78.744 346.962 77.52 348.546 77.52C350.058 77.52 351.282 78.744 351.282 80.328C351.282 81.84 350.058 83.064 348.546 83.064ZM433.344 94.728C433.992 95.232 434.136 96.168 433.56 96.816C427.728 103.944 421.536 110.568 416.064 115.248C408.792 121.512 402.816 124.608 398.208 124.608C396.552 124.608 395.184 124.032 394.248 122.88C391.224 119.28 392.808 111.144 394.464 102.504C395.112 99.12 395.76 95.952 395.976 93.288C396.336 89.832 395.832 88.824 395.616 88.608C395.544 88.536 395.472 88.464 395.256 88.464C393.672 88.464 390.864 91.2 387.552 98.976C385.032 104.952 382.872 112.584 381.72 119.28C381.72 119.64 381.72 119.856 381.72 120C381.72 120.864 381.072 121.512 380.28 121.512C380.208 121.512 380.208 121.512 380.208 121.512C380.136 121.512 379.992 121.512 379.92 121.512C379.128 121.368 378.552 120.648 378.696 119.784C378.696 119.496 378.768 119.208 378.84 118.92C378.84 118.056 378.912 116.76 378.984 115.104C379.2 111.72 379.488 104.88 379.632 99.624C379.488 99.696 379.272 99.696 379.128 99.696C378.336 99.696 377.688 99.048 377.688 98.256C377.688 92.856 378.624 90.264 380.64 90.264C381.072 90.264 381.504 90.48 381.792 90.768C382.296 91.272 382.512 91.992 382.584 94.728C382.656 96.168 382.584 98.256 382.512 100.92C382.512 102 382.512 103.152 382.439 104.304C383.16 102 384.024 99.84 384.816 97.824C388.271 89.616 391.8 85.512 395.256 85.512C396.336 85.512 397.272 85.872 397.92 86.664C399.936 89.184 399 94.512 397.344 103.08C396.048 109.92 394.392 118.488 396.48 121.008C396.768 121.296 397.2 121.656 398.208 121.656C402.024 121.656 407.496 118.704 414.12 113.016C419.448 108.408 425.568 102 431.328 94.944C431.832 94.296 432.768 94.224 433.344 94.728ZM485.845 95.16C486.205 95.88 485.917 96.816 485.197 97.176C469.357 104.952 457.549 113.16 449.413 121.944C449.125 127.128 448.621 132.6 447.829 137.712C445.957 149.016 442.933 154.56 438.685 154.56C437.317 154.56 436.165 153.912 435.373 152.688C433.141 149.304 434.293 141.312 436.669 135.84C438.901 130.656 442.213 125.616 446.533 120.792C446.605 119.208 446.677 117.48 446.749 115.824C446.965 109.776 446.893 104.304 446.749 99.84C445.453 103.08 443.797 106.896 441.925 110.352C440.197 113.52 438.541 116.04 437.029 117.912C435.085 120.288 433.213 121.512 431.557 121.512C430.621 121.512 428.965 121.152 427.957 118.92C427.381 117.696 427.165 116.04 427.165 113.952C427.165 108.984 428.677 102.072 431.053 96.312C433.141 91.344 436.525 85.512 440.917 85.512C442.357 85.512 443.653 86.088 444.733 87.096C444.877 86.664 445.093 86.304 445.381 86.016C445.741 85.656 446.245 85.44 446.749 85.44C448.333 85.44 448.621 87.168 448.837 88.248C449.053 89.328 449.197 90.84 449.341 92.712C449.701 96.672 449.845 101.856 449.845 107.328C449.845 109.992 449.773 113.52 449.629 117.552C451.213 115.968 452.941 114.456 454.669 112.944C462.301 106.536 472.093 100.344 483.829 94.512C484.549 94.152 485.485 94.44 485.845 95.16ZM439.333 108.984C441.925 104.088 444.229 98.616 445.381 95.016C444.733 94.872 444.301 94.296 444.301 93.576C444.301 93.504 444.301 93.36 444.301 93.144C444.229 92.352 444.229 91.704 444.229 91.056C443.149 89.4 441.997 88.464 440.917 88.464C438.829 88.464 436.093 91.848 433.789 97.464C431.557 102.864 430.045 109.344 430.045 113.952C430.045 116.04 430.405 117.12 430.621 117.696C430.981 118.56 431.341 118.56 431.557 118.56C432.709 118.56 435.517 116.04 439.333 108.984ZM441.205 149.592C443.581 145.848 445.309 137.352 446.245 125.688C443.293 129.36 441.061 133.176 439.333 136.992C437.173 142.104 436.453 148.944 437.821 151.104C438.109 151.464 438.397 151.608 438.685 151.608C439.549 151.608 440.341 150.888 441.205 149.592ZM489.492 118.488C491.004 118.488 492.228 119.784 492.228 121.296C492.228 122.808 491.004 124.032 489.492 124.032C487.98 124.032 486.756 122.808 486.756 121.296C486.756 119.784 487.98 118.488 489.492 118.488ZM543.907 94.728C544.483 95.232 544.555 96.168 544.051 96.816C537.859 104.232 527.779 111.792 517.267 116.976C512.443 119.352 507.907 121.008 504.091 121.872C502.363 122.232 500.779 122.448 499.411 122.448C497.395 122.448 495.883 122.016 494.731 121.224C490.195 118.056 491.131 108.912 493.507 101.496C495.883 94.152 500.635 85.512 506.251 85.512C508.339 85.512 509.923 86.52 510.787 88.392C512.011 90.912 511.579 94.728 509.851 96.816C509.347 97.464 508.411 97.536 507.835 97.032C507.187 96.456 507.043 95.592 507.619 94.944C508.483 93.864 508.915 91.272 508.123 89.616C507.763 88.824 507.187 88.464 506.251 88.464C503.155 88.464 498.835 94.44 496.315 102.432C493.867 110.136 493.939 117.048 496.459 118.848C498.475 120.288 505.459 119.496 515.971 114.312C526.195 109.272 535.843 102.072 541.819 94.944C542.323 94.296 543.259 94.224 543.907 94.728ZM669.026 94.728C669.674 95.232 669.818 96.168 669.242 96.816C663.41 103.944 657.218 110.568 651.746 115.248C644.474 121.512 638.498 124.608 633.89 124.608C632.234 124.608 630.866 124.032 629.858 122.88C626.906 119.28 628.49 111.144 630.146 102.504C630.794 99.12 631.442 95.88 631.658 93.288C632.018 89.832 631.514 88.824 631.298 88.608C631.226 88.536 631.154 88.464 630.866 88.464C629.354 88.464 626.474 91.2 623.234 98.976C620.57 105.24 618.338 113.376 617.258 120.288V120.36V120.432L617.186 120.504V120.576V120.648C617.114 120.648 617.114 120.72 617.114 120.72C617.114 120.72 617.114 120.72 617.114 120.792C617.042 120.792 617.042 120.792 617.042 120.864C616.97 120.936 616.97 120.936 616.97 120.936C616.97 120.936 616.97 121.008 616.898 121.008C616.898 121.008 616.898 121.008 616.898 121.08C616.826 121.08 616.826 121.08 616.826 121.08C616.826 121.152 616.754 121.152 616.754 121.152C616.754 121.152 616.754 121.152 616.682 121.224C616.61 121.224 616.61 121.296 616.61 121.296H616.538L616.466 121.368C616.466 121.368 616.466 121.368 616.394 121.368C616.394 121.368 616.394 121.368 616.322 121.44C616.322 121.44 616.322 121.44 616.25 121.44C616.25 121.44 616.25 121.44 616.178 121.44C616.106 121.512 616.106 121.512 616.034 121.512C616.034 121.512 616.034 121.512 615.962 121.512C615.89 121.512 615.89 121.512 615.818 121.512C615.818 121.512 615.818 121.512 615.746 121.512C615.746 121.512 615.746 121.512 615.674 121.512C615.674 121.512 615.674 121.512 615.602 121.512C615.602 121.512 615.602 121.512 615.53 121.512C615.53 121.512 615.53 121.512 615.458 121.44C615.458 121.44 615.458 121.44 615.386 121.44C615.386 121.44 615.386 121.44 615.314 121.44C615.314 121.44 615.314 121.44 615.242 121.44C615.242 121.368 615.242 121.368 615.17 121.368C615.098 121.368 615.098 121.296 615.098 121.296C615.026 121.296 615.026 121.296 615.026 121.296L614.954 121.224H614.882C614.882 121.152 614.882 121.152 614.81 121.152C614.81 121.152 614.81 121.152 614.81 121.08C614.738 121.08 614.738 121.08 614.738 121.08C614.738 121.008 614.738 121.008 614.666 121.008V120.936C614.666 120.936 614.594 120.936 614.594 120.864C614.594 120.864 614.594 120.864 614.594 120.792C614.522 120.792 614.522 120.792 614.522 120.792C614.522 120.72 614.522 120.72 614.522 120.72C614.45 120.648 614.45 120.648 614.45 120.648V120.576C614.45 120.576 614.45 120.504 614.378 120.504V120.432V120.36V120.288V120.216C614.378 120.216 614.378 120.144 614.306 120.144V120.072C614.306 119.064 614.594 117.048 614.954 114.312C615.53 110.424 616.25 105.24 616.466 100.632C616.754 94.008 615.89 91.992 615.386 91.344C615.17 91.128 615.026 91.056 614.882 91.056C613.874 91.056 611.354 92.784 608.042 99.264C605.162 105.024 602.642 112.656 601.13 120.288C601.13 120.288 601.13 120.288 601.13 120.36C601.13 120.432 601.13 120.432 601.13 120.432C601.13 120.504 601.13 120.504 601.13 120.504C601.058 120.576 601.058 120.576 601.058 120.576V120.648C601.058 120.648 601.058 120.72 600.986 120.72C600.986 120.72 600.986 120.72 600.986 120.792C600.986 120.792 600.986 120.792 600.914 120.864C600.914 120.936 600.914 120.936 600.842 120.936V121.008C600.842 121.008 600.77 121.008 600.77 121.08C600.698 121.08 600.698 121.152 600.698 121.152C600.626 121.152 600.626 121.152 600.626 121.152C600.626 121.224 600.554 121.224 600.554 121.224C600.554 121.296 600.482 121.296 600.482 121.296H600.41C600.41 121.368 600.41 121.368 600.338 121.368C600.338 121.368 600.338 121.368 600.266 121.368C600.266 121.368 600.266 121.368 600.266 121.44C600.194 121.44 600.194 121.44 600.194 121.44C600.122 121.44 600.122 121.44 600.122 121.44H600.05C600.05 121.512 599.978 121.512 599.978 121.512H599.906H599.834C599.834 121.512 599.762 121.512 599.69 121.512C599.69 121.512 599.618 121.512 599.546 121.512H599.474C599.474 121.512 599.474 121.512 599.402 121.512C599.402 121.44 599.33 121.44 599.33 121.44C599.258 121.44 599.258 121.44 599.258 121.44H599.186C599.186 121.368 599.114 121.368 599.114 121.368C599.114 121.368 599.114 121.368 599.042 121.368C598.898 121.296 598.754 121.152 598.61 121.008C598.61 121.008 598.61 121.008 598.538 121.008C598.538 120.936 598.538 120.936 598.538 120.936C598.466 120.792 598.322 120.648 598.322 120.504C598.322 120.432 598.322 120.432 598.25 120.432C598.25 120.36 598.25 120.36 598.25 120.36V120.288V120.216V120.144V120.072C598.25 120.072 598.25 120.072 598.25 120C598.25 119.424 598.322 117.696 598.466 115.104C598.682 110.208 599.33 98.184 599.042 93.936C593.354 96.528 586.874 97.896 580.322 97.896C578.378 97.896 576.362 97.752 574.346 97.536C570.53 97.032 567.002 96.096 563.906 94.728C564.914 97.248 565.634 100.2 565.634 103.512C565.634 107.76 564.41 112.08 562.322 115.392C559.802 119.352 556.202 121.512 552.026 121.512C548.354 121.512 545.042 119.424 542.666 115.608C540.578 112.296 539.426 107.904 539.426 103.512C539.426 98.472 541.442 94.44 543.242 91.92C545.114 89.112 547.706 86.736 549.938 85.656C550.514 85.296 551.306 85.512 551.738 86.016C553.178 87.888 551.234 90.696 547.274 94.944C546.77 95.52 545.834 95.592 545.186 95.016C545.114 94.944 545.042 94.8 544.97 94.728C543.458 97.176 542.306 100.2 542.306 103.512C542.306 107.328 543.386 111.216 545.186 114.024C546.482 116.112 548.714 118.56 552.026 118.56C559.37 118.56 562.682 109.776 562.682 103.512C562.682 98.616 560.954 94.8 559.082 92.208C557.21 90.912 555.554 89.472 554.33 87.888C554.33 87.888 554.33 87.888 554.33 87.816C554.258 87.816 554.258 87.816 554.258 87.744C554.258 87.744 554.258 87.744 554.186 87.744C554.186 87.672 554.186 87.672 554.186 87.672C554.186 87.6 554.186 87.6 554.114 87.6V87.528V87.456C554.114 87.456 554.114 87.456 554.042 87.384V87.312C554.042 87.312 554.042 87.312 554.042 87.24C554.042 87.24 554.042 87.24 554.042 87.168C554.042 87.168 554.042 87.168 554.042 87.096C554.042 87.096 554.042 87.096 553.97 87.024C553.97 87.024 553.97 87.024 553.97 86.952C553.97 86.952 553.97 86.952 553.97 86.88C553.97 86.88 554.042 86.88 554.042 86.808C554.042 86.808 554.042 86.808 554.042 86.736C554.042 86.736 554.042 86.736 554.042 86.664C554.042 86.664 554.042 86.664 554.042 86.592C554.042 86.592 554.042 86.592 554.042 86.52C554.042 86.52 554.042 86.52 554.114 86.448C554.114 86.376 554.114 86.376 554.114 86.304C554.186 86.304 554.186 86.304 554.186 86.304C554.186 86.232 554.186 86.232 554.186 86.232C554.186 86.16 554.258 86.16 554.258 86.16V86.088C554.33 86.088 554.33 86.016 554.33 86.016C554.33 86.016 554.33 86.016 554.402 85.944C554.474 85.872 554.474 85.872 554.474 85.872L554.546 85.8C554.546 85.8 554.546 85.8 554.618 85.8C554.618 85.728 554.618 85.728 554.69 85.728C554.762 85.656 554.762 85.656 554.762 85.656H554.834C554.834 85.584 554.906 85.584 554.906 85.584H554.978C554.978 85.584 554.978 85.584 555.05 85.584C555.05 85.512 555.05 85.512 555.122 85.512C555.122 85.512 555.122 85.512 555.194 85.512C555.194 85.512 555.194 85.512 555.266 85.512C555.266 85.512 555.266 85.512 555.338 85.512C555.338 85.512 555.338 85.512 555.41 85.512C555.41 85.512 555.41 85.512 555.482 85.512C555.482 85.512 555.482 85.512 555.554 85.512C555.554 85.512 555.554 85.512 555.626 85.512C555.626 85.512 555.626 85.512 555.698 85.512C555.698 85.512 555.698 85.512 555.77 85.512C555.77 85.512 555.77 85.512 555.842 85.512C555.842 85.512 555.842 85.512 555.914 85.512C555.914 85.512 555.914 85.584 555.986 85.584C556.058 85.584 556.058 85.584 556.058 85.584C556.13 85.584 556.13 85.584 556.13 85.656C557.57 86.304 559.442 87.816 561.098 89.976C570.098 95.664 586.298 97.248 599.402 90.48C599.474 90.408 599.474 90.408 599.546 90.408C599.618 90.408 599.618 90.336 599.69 90.336C599.69 90.336 599.69 90.336 599.762 90.336C599.762 90.336 599.762 90.336 599.834 90.336C599.834 90.336 599.834 90.336 599.906 90.336C599.906 90.336 599.906 90.336 599.978 90.336C599.978 90.336 599.978 90.264 600.05 90.264H600.122L600.194 90.336C600.626 90.336 600.986 90.48 601.274 90.768C601.706 91.272 601.922 91.992 602.066 94.728C602.066 96.168 602.066 98.256 601.994 100.92C601.922 102.72 601.85 104.664 601.778 106.608C602.858 103.512 604.082 100.56 605.45 97.968C607.682 93.504 611.21 88.104 614.882 88.104C615.962 88.104 616.898 88.608 617.618 89.4C619.274 91.344 619.634 95.376 619.418 100.56C619.778 99.624 620.138 98.688 620.498 97.824C623.954 89.616 627.41 85.512 630.866 85.512C632.018 85.512 632.882 85.872 633.602 86.664C635.618 89.112 634.682 94.512 633.026 103.08C631.73 109.92 630.074 118.488 632.162 121.008C632.45 121.296 632.882 121.656 633.89 121.656C637.706 121.656 643.178 118.704 649.802 113.016C655.13 108.408 661.25 102 667.01 94.944C667.514 94.296 668.45 94.224 669.026 94.728Z" fill="#E4E4E4" style="fill:#E4E4E4;fill:color(display-p3 0.8958 0.8958 0.8958);fill-opacity:1;"/>
</g>
<rect x="326.277" y="142.471" width="352.465" height="2.52344" rx="1.26172" fill="#24AE7C" style="fill:#24AE7C;fill:color(display-p3 0.1412 0.6824 0.4863);fill-opacity:1;"/>
<defs>
<filter id="filter0_d_5_11" x="33.6" y="52.392" width="640.218" height="110.168" filterUnits="userSpaceOnUse" color-interpolation-filters="sRGB">
<feFlood flood-opacity="0" result="BackgroundImageFix"/>
<feColorMatrix in="SourceAlpha" type="matrix" values="0 0 0 0 0 0 0 0 0 0 0 0 0 0 0 0 0 0 127 0" result="hardAlpha"/>
<feOffset dy="4"/>
<feGaussianBlur stdDeviation="2"/>
<feComposite in2="hardAlpha" operator="out"/>
<feColorMatrix type="matrix" values="0 0 0 0 0 0 0 0 0 0 0 0 0 0 0 0 0 0 0.25 0"/>
<feBlend mode="normal" in2="BackgroundImageFix" result="effect1_dropShadow_5_11"/>
<feBlend mode="normal" in="SourceGraphic" in2="effect1_dropShadow_5_11" result="shape"/>
</filter>
</defs>
</svg>
