<svg width="646" height="103" viewBox="0 0 646 103" fill="none" xmlns="http://www.w3.org/2000/svg">
<path d="M13.3405 4.208C13.7725 4.784 13.8445 5.36 13.7725 7.16C13.7005 8.168 13.5565 9.68 13.3405 11.696C12.9805 15.44 12.4045 20.408 11.7565 26.168C10.7485 35.24 9.52454 45.608 8.80454 54.176C7.79654 65.984 8.01254 69.224 8.30054 70.16C8.66054 70.448 8.87654 70.88 8.87654 71.384C8.87654 72.176 8.22854 72.824 7.36454 72.824C6.86054 72.824 6.42854 72.608 6.06854 72.176C5.20454 71.24 4.55654 69.224 5.78054 54.68C6.57254 45.968 7.72454 35.24 8.80454 25.808C9.38054 20.984 9.95654 16.016 10.3165 12.272C8.44454 16.088 7.36454 17.384 5.99654 17.384C5.20454 17.384 4.55654 16.736 4.55654 15.944C4.55654 15.224 4.98854 14.72 5.56454 14.504C6.50054 13.712 8.37254 9.536 9.23654 7.664C9.66854 6.8 10.0285 6.008 10.3165 5.432C10.7485 4.568 11.1805 3.704 12.1885 3.704C12.6205 3.704 13.0525 3.92 13.3405 4.208ZM39.2977 3.704C48.0097 3.704 55.3537 19.544 55.3537 38.264C55.3537 47.336 53.6257 55.832 50.6017 62.312C47.3617 69.08 42.9697 72.824 38.1457 72.824C33.3217 72.824 28.9297 69.08 25.6897 62.312C22.6657 55.832 21.0097 47.336 21.0097 38.264C21.0097 28.832 22.8097 20.192 25.9057 13.856C25.8337 13.784 25.7617 13.784 25.6897 13.712C24.9697 13.28 24.7537 12.416 25.1857 11.696C26.4097 9.68 27.7777 8.456 28.7137 7.808C29.7217 7.16 31.1617 6.44 32.1697 7.016C34.2577 4.856 36.7057 3.704 39.2977 3.704ZM38.1457 69.872C45.8497 69.872 52.4017 55.4 52.4017 38.264C52.4017 29.768 50.8177 21.704 48.0097 15.512C45.4897 9.968 42.2497 6.656 39.2977 6.656C36.9217 6.656 34.6177 8.168 32.8897 10.976C29.3617 16.52 27.9937 26.96 32.3137 36.176C32.6017 36.968 32.3137 37.832 31.5937 38.12C30.8017 38.48 29.9377 38.192 29.5777 37.472C26.6257 31.064 26.1217 24.368 26.9857 18.824C25.0417 24.296 23.8897 31.136 23.8897 38.264C23.8897 55.4 30.4417 69.872 38.1457 69.872ZM78.2508 3.704C86.9628 3.704 94.3068 19.544 94.3068 38.264C94.3068 47.336 92.5788 55.832 89.5548 62.312C86.3148 69.08 81.9228 72.824 77.0988 72.824C72.2748 72.824 67.8828 69.08 64.6428 62.312C61.6188 55.832 59.9628 47.336 59.9628 38.264C59.9628 28.832 61.7628 20.192 64.8588 13.856C64.7868 13.784 64.7148 13.784 64.6428 13.712C63.9228 13.28 63.7068 12.416 64.1388 11.696C65.3628 9.68 66.7308 8.456 67.6668 7.808C68.6748 7.16 70.1148 6.44 71.1228 7.016C73.2108 4.856 75.6588 3.704 78.2508 3.704ZM77.0988 69.872C84.8028 69.872 91.3548 55.4 91.3548 38.264C91.3548 29.768 89.7708 21.704 86.9628 15.512C84.4428 9.968 81.2028 6.656 78.2508 6.656C75.8748 6.656 73.5708 8.168 71.8428 10.976C68.3148 16.52 66.9468 26.96 71.2668 36.176C71.5548 36.968 71.2668 37.832 70.5468 38.12C69.7548 38.48 68.8908 38.192 68.5308 37.472C65.5788 31.064 65.0748 24.368 65.9388 18.824C63.9948 24.296 62.8428 31.136 62.8428 38.264C62.8428 55.4 69.3948 69.872 77.0988 69.872ZM152.133 42.656C152.781 43.16 152.925 44.096 152.421 44.744C147.885 51.008 141.405 57.56 135.141 62.168C130.389 65.696 123.765 69.656 118.005 69.656C117.357 69.656 116.709 69.584 116.061 69.512C110.733 68.576 106.485 62.168 103.173 55.112C100.797 59.216 98.8535 63.68 98.2055 68.216C98.1335 69.008 97.4855 69.512 96.7655 69.512C96.6935 69.512 96.6215 69.512 96.5495 69.512C95.7575 69.368 95.1815 68.648 95.3255 67.856C96.1175 62.168 98.7095 56.696 101.733 51.8C100.365 48.632 99.2135 45.464 98.2775 42.656C98.2055 42.728 98.2055 42.728 98.1335 42.8C97.3415 43.088 96.4775 42.656 96.1895 41.936C95.9015 41.144 95.4695 39.632 95.2535 38.336C94.7495 35.672 95.0375 34.808 95.3975 34.304C95.7575 33.8 96.3335 33.512 96.9095 33.512C98.1335 33.512 98.5655 34.664 98.9975 35.744C99.3575 36.68 99.7895 37.904 100.293 39.416C101.157 42.008 102.309 45.32 103.677 48.776C106.341 45.032 109.077 41.648 111.237 39.056C112.893 37.04 114.405 35.312 115.053 34.16C115.485 33.512 116.421 33.296 117.069 33.728C117.789 34.088 118.005 35.024 117.573 35.744C116.781 37.04 115.341 38.768 113.541 40.928C110.949 44.024 107.853 47.768 105.045 52.016C105.621 53.456 106.269 54.824 106.917 56.12C110.229 62.528 113.469 66.056 116.565 66.56C125.205 68 141.117 55.328 150.045 43.016C150.549 42.368 151.485 42.224 152.133 42.656ZM197.902 42.728C198.478 43.232 198.55 44.168 198.046 44.816C191.854 52.232 181.774 59.792 171.262 64.976C166.438 67.352 161.902 69.008 158.086 69.872C156.358 70.232 154.774 70.448 153.406 70.448C151.39 70.448 149.878 70.016 148.726 69.224C144.19 66.056 145.126 56.912 147.502 49.496C149.878 42.152 154.63 33.512 160.246 33.512C162.334 33.512 163.918 34.52 164.782 36.392C166.006 38.912 165.574 42.728 163.846 44.816C163.342 45.464 162.406 45.536 161.83 45.032C161.182 44.456 161.038 43.592 161.614 42.944C162.478 41.864 162.91 39.272 162.118 37.616C161.758 36.824 161.182 36.464 160.246 36.464C157.15 36.464 152.83 42.44 150.31 50.432C147.862 58.136 147.934 65.048 150.454 66.848C152.47 68.288 159.454 67.496 169.966 62.312C180.19 57.272 189.838 50.072 195.814 42.944C196.318 42.296 197.254 42.224 197.902 42.728ZM254.55 43.16C254.982 43.88 254.694 44.744 254.046 45.176C248.718 48.128 243.39 49.208 238.494 49.208C233.382 49.208 228.702 47.984 224.958 46.616C222.798 45.824 220.854 44.888 219.054 43.88C219.846 46.112 220.35 48.704 220.35 51.512C220.35 55.76 219.126 60.08 217.038 63.392C214.518 67.352 210.918 69.512 206.742 69.512C203.07 69.512 199.758 67.424 197.382 63.608C195.294 60.296 194.142 55.904 194.142 51.512C194.142 46.472 196.158 42.44 197.958 39.92C199.83 37.112 202.422 34.736 204.654 33.656C205.23 33.296 206.022 33.512 206.454 34.016C207.894 35.888 205.95 38.696 201.99 42.944C201.486 43.52 200.55 43.592 199.902 43.016C199.83 42.944 199.758 42.8 199.686 42.728C198.174 45.176 197.022 48.2 197.022 51.512C197.022 55.328 198.102 59.216 199.902 62.024C201.198 64.112 203.43 66.56 206.742 66.56C214.086 66.56 217.398 57.776 217.398 51.512C217.398 47.12 216.03 43.592 214.374 41C211.71 39.128 209.91 37.4 209.262 36.464C208.254 35.168 208.758 34.304 209.118 33.944L209.19 33.872L209.262 33.8H209.334C209.334 33.728 209.334 33.728 209.406 33.728C209.406 33.728 209.406 33.728 209.406 33.656C209.478 33.656 209.478 33.656 209.478 33.656C209.55 33.656 209.55 33.656 209.55 33.584H209.622H209.694C209.694 33.584 209.694 33.584 209.766 33.512H209.838H209.91C209.91 33.512 209.91 33.512 209.982 33.512H210.054H210.126H210.198H210.27H210.342H210.414C210.414 33.512 210.414 33.512 210.486 33.512C210.486 33.512 210.486 33.512 210.558 33.512C210.558 33.512 210.558 33.512 210.63 33.512C210.63 33.512 210.63 33.584 210.702 33.584C210.774 33.584 210.774 33.584 210.846 33.584C210.846 33.584 210.846 33.584 210.846 33.656C212.502 34.448 214.662 36.248 216.534 38.912C216.606 38.984 216.678 38.984 216.75 39.056C219.342 40.784 223.518 43.232 228.774 44.816C237.414 47.336 245.406 46.616 252.606 42.584C253.254 42.152 254.19 42.44 254.55 43.16ZM312.956 42.584C313.676 42.944 313.892 43.88 313.532 44.6C309.14 52.52 302.732 60.8 296.54 66.632C292.004 70.952 285.812 75.488 280.34 75.488C279.26 75.488 278.18 75.344 277.172 74.912C270.548 72.32 268.244 61.232 267.524 52.448C267.38 51.008 267.308 49.496 267.236 47.984C265.94 51.224 264.212 54.968 262.412 58.352C260.684 61.52 259.028 64.04 257.516 65.912C255.572 68.288 253.7 69.512 252.044 69.512C251.108 69.512 249.452 69.152 248.444 66.92C247.868 65.696 247.652 64.04 247.652 61.952C247.652 56.984 249.164 50.072 251.54 44.312C253.628 39.344 257.012 33.512 261.404 33.512C263.78 33.512 265.724 35.168 267.236 37.4C267.452 31.136 268.172 24.728 269.252 18.824C270.908 10.4 273.86 0.391995 278.9 0.391995C280.34 0.391995 281.492 1.04 282.212 2.192C283.508 4.136 283.724 7.52 282.932 12.92C282.356 17.024 281.06 22.208 279.26 28.4C276.02 39.488 271.916 50.144 270.548 53.456C271.628 63.896 274.436 70.664 278.252 72.176C281.924 73.616 287.684 70.88 294.452 64.544C300.428 58.928 306.764 50.72 310.94 43.16C311.372 42.44 312.236 42.152 312.956 42.584ZM259.82 56.984C262.628 51.656 265.148 45.536 266.228 42.008C265.94 41.288 265.652 40.64 265.292 39.92C264.068 37.688 262.628 36.464 261.404 36.464C259.316 36.464 256.58 39.848 254.276 45.464C252.044 50.864 250.532 57.344 250.532 61.952C250.532 64.04 250.892 65.12 251.108 65.696C251.468 66.56 251.828 66.56 252.044 66.56C253.196 66.56 256.004 64.04 259.82 56.984ZM272.204 19.4C270.62 27.824 269.828 37.688 270.116 46.4C271.916 41.576 274.364 34.664 276.452 27.536C281.78 9.536 280.556 4.928 279.764 3.776C279.548 3.488 279.332 3.344 278.9 3.344C277.46 3.344 274.436 7.592 272.204 19.4ZM346.822 42.656C347.47 43.16 347.614 44.096 347.182 44.744C346.966 45.032 341.926 51.944 334.942 58.496C327.166 65.768 320.326 69.512 314.71 69.512C312.622 69.512 310.894 68.72 309.814 67.208C306.358 62.744 308.374 53.024 311.038 43.016C310.894 43.016 310.75 43.016 310.678 42.944C309.886 42.8 309.31 42.008 309.526 41.216C309.598 40.784 310.102 39.056 310.75 37.4C311.47 35.6 312.622 33.512 314.35 33.512C314.854 33.512 315.286 33.728 315.574 34.088C316.294 34.952 316.078 35.888 314.638 41.144C312.766 47.696 309.022 61.304 312.118 65.408C312.694 66.2 313.558 66.56 314.71 66.56C325.294 66.56 339.982 49.568 344.806 43.016C345.238 42.368 346.174 42.224 346.822 42.656ZM315.502 31.064C313.918 31.064 312.694 29.84 312.694 28.328C312.694 26.744 313.918 25.52 315.502 25.52C317.014 25.52 318.238 26.744 318.238 28.328C318.238 29.84 317.014 31.064 315.502 31.064ZM400.3 42.728C400.948 43.232 401.092 44.168 400.516 44.816C394.684 51.944 388.492 58.568 383.02 63.248C375.748 69.512 369.772 72.608 365.164 72.608C363.508 72.608 362.14 72.032 361.204 70.88C358.18 67.28 359.764 59.144 361.42 50.504C362.068 47.12 362.716 43.952 362.932 41.288C363.292 37.832 362.788 36.824 362.572 36.608C362.5 36.536 362.428 36.464 362.212 36.464C360.628 36.464 357.82 39.2 354.508 46.976C351.988 52.952 349.828 60.584 348.676 67.28C348.676 67.64 348.676 67.856 348.676 68C348.676 68.864 348.028 69.512 347.236 69.512C347.164 69.512 347.164 69.512 347.164 69.512C347.092 69.512 346.948 69.512 346.876 69.512C346.084 69.368 345.508 68.648 345.652 67.784C345.652 67.496 345.724 67.208 345.796 66.92C345.796 66.056 345.868 64.76 345.94 63.104C346.156 59.72 346.444 52.88 346.588 47.624C346.444 47.696 346.228 47.696 346.084 47.696C345.292 47.696 344.644 47.048 344.644 46.256C344.644 40.856 345.58 38.264 347.596 38.264C348.028 38.264 348.46 38.48 348.748 38.768C349.252 39.272 349.468 39.992 349.54 42.728C349.612 44.168 349.54 46.256 349.468 48.92C349.468 50 349.468 51.152 349.396 52.304C350.116 50 350.98 47.84 351.772 45.824C355.228 37.616 358.756 33.512 362.212 33.512C363.292 33.512 364.228 33.872 364.876 34.664C366.892 37.184 365.956 42.512 364.3 51.08C363.004 57.92 361.348 66.488 363.436 69.008C363.724 69.296 364.156 69.656 365.164 69.656C368.98 69.656 374.452 66.704 381.076 61.016C386.404 56.408 392.524 50 398.284 42.944C398.788 42.296 399.724 42.224 400.3 42.728ZM452.802 43.16C453.162 43.88 452.874 44.816 452.154 45.176C436.314 52.952 424.506 61.16 416.37 69.944C416.082 75.128 415.578 80.6 414.786 85.712C412.914 97.016 409.89 102.56 405.642 102.56C404.274 102.56 403.122 101.912 402.33 100.688C400.098 97.304 401.25 89.312 403.626 83.84C405.858 78.656 409.17 73.616 413.49 68.792C413.562 67.208 413.634 65.48 413.706 63.824C413.922 57.776 413.85 52.304 413.706 47.84C412.41 51.08 410.754 54.896 408.882 58.352C407.154 61.52 405.498 64.04 403.986 65.912C402.042 68.288 400.17 69.512 398.514 69.512C397.578 69.512 395.922 69.152 394.914 66.92C394.338 65.696 394.122 64.04 394.122 61.952C394.122 56.984 395.634 50.072 398.01 44.312C400.098 39.344 403.482 33.512 407.874 33.512C409.314 33.512 410.61 34.088 411.69 35.096C411.834 34.664 412.05 34.304 412.338 34.016C412.698 33.656 413.202 33.44 413.706 33.44C415.29 33.44 415.578 35.168 415.794 36.248C416.01 37.328 416.154 38.84 416.298 40.712C416.658 44.672 416.802 49.856 416.802 55.328C416.802 57.992 416.73 61.52 416.586 65.552C418.17 63.968 419.898 62.456 421.626 60.944C429.258 54.536 439.05 48.344 450.786 42.512C451.506 42.152 452.442 42.44 452.802 43.16ZM406.29 56.984C408.882 52.088 411.186 46.616 412.338 43.016C411.69 42.872 411.258 42.296 411.258 41.576C411.258 41.504 411.258 41.36 411.258 41.144C411.186 40.352 411.186 39.704 411.186 39.056C410.106 37.4 408.954 36.464 407.874 36.464C405.786 36.464 403.05 39.848 400.746 45.464C398.514 50.864 397.002 57.344 397.002 61.952C397.002 64.04 397.362 65.12 397.578 65.696C397.938 66.56 398.298 66.56 398.514 66.56C399.666 66.56 402.474 64.04 406.29 56.984ZM408.162 97.592C410.538 93.848 412.266 85.352 413.202 73.688C410.25 77.36 408.018 81.176 406.29 84.992C404.13 90.104 403.41 96.944 404.778 99.104C405.066 99.464 405.354 99.608 405.642 99.608C406.506 99.608 407.298 98.888 408.162 97.592ZM456.449 66.488C457.961 66.488 459.185 67.784 459.185 69.296C459.185 70.808 457.961 72.032 456.449 72.032C454.937 72.032 453.713 70.808 453.713 69.296C453.713 67.784 454.937 66.488 456.449 66.488ZM510.863 42.728C511.439 43.232 511.511 44.168 511.007 44.816C504.815 52.232 494.735 59.792 484.223 64.976C479.399 67.352 474.863 69.008 471.047 69.872C469.319 70.232 467.735 70.448 466.367 70.448C464.351 70.448 462.839 70.016 461.687 69.224C457.151 66.056 458.087 56.912 460.463 49.496C462.839 42.152 467.591 33.512 473.207 33.512C475.295 33.512 476.879 34.52 477.743 36.392C478.967 38.912 478.535 42.728 476.807 44.816C476.303 45.464 475.367 45.536 474.791 45.032C474.143 44.456 473.999 43.592 474.575 42.944C475.439 41.864 475.871 39.272 475.079 37.616C474.719 36.824 474.143 36.464 473.207 36.464C470.111 36.464 465.791 42.44 463.271 50.432C460.823 58.136 460.895 65.048 463.415 66.848C465.431 68.288 472.415 67.496 482.927 62.312C493.151 57.272 502.799 50.072 508.775 42.944C509.279 42.296 510.215 42.224 510.863 42.728ZM635.982 42.728C636.63 43.232 636.774 44.168 636.198 44.816C630.366 51.944 624.174 58.568 618.702 63.248C611.43 69.512 605.454 72.608 600.846 72.608C599.19 72.608 597.822 72.032 596.814 70.88C593.862 67.28 595.446 59.144 597.102 50.504C597.75 47.12 598.398 43.88 598.614 41.288C598.974 37.832 598.47 36.824 598.254 36.608C598.182 36.536 598.11 36.464 597.822 36.464C596.31 36.464 593.43 39.2 590.19 46.976C587.526 53.24 585.294 61.376 584.214 68.288V68.36V68.432L584.142 68.504V68.576V68.648C584.07 68.648 584.07 68.72 584.07 68.72C584.07 68.72 584.07 68.72 584.07 68.792C583.998 68.792 583.998 68.792 583.998 68.864C583.926 68.936 583.926 68.936 583.926 68.936C583.926 68.936 583.926 69.008 583.854 69.008C583.854 69.008 583.854 69.008 583.854 69.08C583.782 69.08 583.782 69.08 583.782 69.08C583.782 69.152 583.71 69.152 583.71 69.152C583.71 69.152 583.71 69.152 583.638 69.224C583.566 69.224 583.566 69.296 583.566 69.296H583.494L583.422 69.368C583.422 69.368 583.422 69.368 583.35 69.368C583.35 69.368 583.35 69.368 583.278 69.44C583.278 69.44 583.278 69.44 583.206 69.44C583.206 69.44 583.206 69.44 583.134 69.44C583.062 69.512 583.062 69.512 582.99 69.512C582.99 69.512 582.99 69.512 582.918 69.512C582.846 69.512 582.846 69.512 582.774 69.512C582.774 69.512 582.774 69.512 582.702 69.512C582.702 69.512 582.702 69.512 582.63 69.512C582.63 69.512 582.63 69.512 582.558 69.512C582.558 69.512 582.558 69.512 582.486 69.512C582.486 69.512 582.486 69.512 582.414 69.44C582.414 69.44 582.414 69.44 582.342 69.44C582.342 69.44 582.342 69.44 582.27 69.44C582.27 69.44 582.27 69.44 582.198 69.44C582.198 69.368 582.198 69.368 582.126 69.368C582.054 69.368 582.054 69.296 582.054 69.296C581.982 69.296 581.982 69.296 581.982 69.296L581.91 69.224H581.838C581.838 69.152 581.838 69.152 581.766 69.152C581.766 69.152 581.766 69.152 581.766 69.08C581.694 69.08 581.694 69.08 581.694 69.08C581.694 69.008 581.694 69.008 581.622 69.008V68.936C581.622 68.936 581.55 68.936 581.55 68.864C581.55 68.864 581.55 68.864 581.55 68.792C581.478 68.792 581.478 68.792 581.478 68.792C581.478 68.72 581.478 68.72 581.478 68.72C581.406 68.648 581.406 68.648 581.406 68.648V68.576C581.406 68.576 581.406 68.504 581.334 68.504V68.432V68.36V68.288V68.216C581.334 68.216 581.334 68.144 581.262 68.144V68.072C581.262 67.064 581.55 65.048 581.91 62.312C582.486 58.424 583.206 53.24 583.422 48.632C583.71 42.008 582.846 39.992 582.342 39.344C582.126 39.128 581.982 39.056 581.838 39.056C580.83 39.056 578.31 40.784 574.998 47.264C572.118 53.024 569.598 60.656 568.086 68.288C568.086 68.288 568.086 68.288 568.086 68.36C568.086 68.432 568.086 68.432 568.086 68.432C568.086 68.504 568.086 68.504 568.086 68.504C568.014 68.576 568.014 68.576 568.014 68.576V68.648C568.014 68.648 568.014 68.72 567.942 68.72C567.942 68.72 567.942 68.72 567.942 68.792C567.942 68.792 567.942 68.792 567.87 68.864C567.87 68.936 567.87 68.936 567.798 68.936V69.008C567.798 69.008 567.726 69.008 567.726 69.08C567.654 69.08 567.654 69.152 567.654 69.152C567.582 69.152 567.582 69.152 567.582 69.152C567.582 69.224 567.51 69.224 567.51 69.224C567.51 69.296 567.438 69.296 567.438 69.296H567.366C567.366 69.368 567.366 69.368 567.294 69.368C567.294 69.368 567.294 69.368 567.222 69.368C567.222 69.368 567.222 69.368 567.222 69.44C567.15 69.44 567.15 69.44 567.15 69.44C567.078 69.44 567.078 69.44 567.078 69.44H567.006C567.006 69.512 566.934 69.512 566.934 69.512H566.862H566.79C566.79 69.512 566.718 69.512 566.646 69.512C566.646 69.512 566.574 69.512 566.502 69.512H566.43C566.43 69.512 566.43 69.512 566.358 69.512C566.358 69.44 566.286 69.44 566.286 69.44C566.214 69.44 566.214 69.44 566.214 69.44H566.142C566.142 69.368 566.07 69.368 566.07 69.368C566.07 69.368 566.07 69.368 565.998 69.368C565.854 69.296 565.71 69.152 565.566 69.008C565.566 69.008 565.566 69.008 565.494 69.008C565.494 68.936 565.494 68.936 565.494 68.936C565.422 68.792 565.278 68.648 565.278 68.504C565.278 68.432 565.278 68.432 565.206 68.432C565.206 68.36 565.206 68.36 565.206 68.36V68.288V68.216V68.144V68.072C565.206 68.072 565.206 68.072 565.206 68C565.206 67.424 565.278 65.696 565.422 63.104C565.638 58.208 566.286 46.184 565.998 41.936C560.31 44.528 553.83 45.896 547.278 45.896C545.334 45.896 543.318 45.752 541.302 45.536C537.486 45.032 533.958 44.096 530.862 42.728C531.87 45.248 532.59 48.2 532.59 51.512C532.59 55.76 531.366 60.08 529.278 63.392C526.758 67.352 523.158 69.512 518.982 69.512C515.31 69.512 511.998 67.424 509.622 63.608C507.534 60.296 506.382 55.904 506.382 51.512C506.382 46.472 508.398 42.44 510.198 39.92C512.07 37.112 514.662 34.736 516.894 33.656C517.47 33.296 518.262 33.512 518.694 34.016C520.134 35.888 518.19 38.696 514.23 42.944C513.726 43.52 512.79 43.592 512.142 43.016C512.07 42.944 511.998 42.8 511.926 42.728C510.414 45.176 509.262 48.2 509.262 51.512C509.262 55.328 510.342 59.216 512.142 62.024C513.438 64.112 515.67 66.56 518.982 66.56C526.326 66.56 529.638 57.776 529.638 51.512C529.638 46.616 527.91 42.8 526.038 40.208C524.166 38.912 522.51 37.472 521.286 35.888C521.286 35.888 521.286 35.888 521.286 35.816C521.214 35.816 521.214 35.816 521.214 35.744C521.214 35.744 521.214 35.744 521.142 35.744C521.142 35.672 521.142 35.672 521.142 35.672C521.142 35.6 521.142 35.6 521.07 35.6V35.528V35.456C521.07 35.456 521.07 35.456 520.998 35.384V35.312C520.998 35.312 520.998 35.312 520.998 35.24C520.998 35.24 520.998 35.24 520.998 35.168C520.998 35.168 520.998 35.168 520.998 35.096C520.998 35.096 520.998 35.096 520.926 35.024C520.926 35.024 520.926 35.024 520.926 34.952C520.926 34.952 520.926 34.952 520.926 34.88C520.926 34.88 520.998 34.88 520.998 34.808C520.998 34.808 520.998 34.808 520.998 34.736C520.998 34.736 520.998 34.736 520.998 34.664C520.998 34.664 520.998 34.664 520.998 34.592C520.998 34.592 520.998 34.592 520.998 34.52C520.998 34.52 520.998 34.52 521.07 34.448C521.07 34.376 521.07 34.376 521.07 34.304C521.142 34.304 521.142 34.304 521.142 34.304C521.142 34.232 521.142 34.232 521.142 34.232C521.142 34.16 521.214 34.16 521.214 34.16V34.088C521.286 34.088 521.286 34.016 521.286 34.016C521.286 34.016 521.286 34.016 521.358 33.944C521.43 33.872 521.43 33.872 521.43 33.872L521.502 33.8C521.502 33.8 521.502 33.8 521.574 33.8C521.574 33.728 521.574 33.728 521.646 33.728C521.718 33.656 521.718 33.656 521.718 33.656H521.79C521.79 33.584 521.862 33.584 521.862 33.584H521.934C521.934 33.584 521.934 33.584 522.006 33.584C522.006 33.512 522.006 33.512 522.078 33.512C522.078 33.512 522.078 33.512 522.15 33.512C522.15 33.512 522.15 33.512 522.222 33.512C522.222 33.512 522.222 33.512 522.294 33.512C522.294 33.512 522.294 33.512 522.366 33.512C522.366 33.512 522.366 33.512 522.438 33.512C522.438 33.512 522.438 33.512 522.51 33.512C522.51 33.512 522.51 33.512 522.582 33.512C522.582 33.512 522.582 33.512 522.654 33.512C522.654 33.512 522.654 33.512 522.726 33.512C522.726 33.512 522.726 33.512 522.798 33.512C522.798 33.512 522.798 33.512 522.87 33.512C522.87 33.512 522.87 33.584 522.942 33.584C523.014 33.584 523.014 33.584 523.014 33.584C523.086 33.584 523.086 33.584 523.086 33.656C524.526 34.304 526.398 35.816 528.054 37.976C537.054 43.664 553.254 45.248 566.358 38.48C566.43 38.408 566.43 38.408 566.502 38.408C566.574 38.408 566.574 38.336 566.646 38.336C566.646 38.336 566.646 38.336 566.718 38.336C566.718 38.336 566.718 38.336 566.79 38.336C566.79 38.336 566.79 38.336 566.862 38.336C566.862 38.336 566.862 38.336 566.934 38.336C566.934 38.336 566.934 38.264 567.006 38.264H567.078L567.15 38.336C567.582 38.336 567.942 38.48 568.23 38.768C568.662 39.272 568.878 39.992 569.022 42.728C569.022 44.168 569.022 46.256 568.95 48.92C568.878 50.72 568.806 52.664 568.734 54.608C569.814 51.512 571.038 48.56 572.406 45.968C574.638 41.504 578.166 36.104 581.838 36.104C582.918 36.104 583.854 36.608 584.574 37.4C586.23 39.344 586.59 43.376 586.374 48.56C586.734 47.624 587.094 46.688 587.454 45.824C590.91 37.616 594.366 33.512 597.822 33.512C598.974 33.512 599.838 33.872 600.558 34.664C602.574 37.112 601.638 42.512 599.982 51.08C598.686 57.92 597.03 66.488 599.118 69.008C599.406 69.296 599.838 69.656 600.846 69.656C604.662 69.656 610.134 66.704 616.758 61.016C622.086 56.408 628.206 50 633.966 42.944C634.47 42.296 635.406 42.224 635.982 42.728Z" fill="#E4E4E4" style="fill:#E4E4E4;fill:color(display-p3 0.8958 0.8958 0.8958);fill-opacity:1;"/>
<rect x="293.234" y="90.4707" width="352.465" height="2.52344" rx="1.26172" fill="#24AE7C" style="fill:#24AE7C;fill:color(display-p3 0.1412 0.6824 0.4863);fill-opacity:1;"/>
</svg>
